<svg viewBox="0 0 1000 500" xmlns="http://www.w3.org/2000/svg">
  <defs>
    <radialGradient id="mg1" cx="20%" cy="50%" r="40%">
      <stop offset="0%" stop-color="rgba(194,54,22,0.15)"/>
      <stop offset="100%" stop-color="transparent"/>
    </radialGradient>
    <radialGradient id="mg2" cx="75%" cy="40%" r="35%">
      <stop offset="0%" stop-color="rgba(230,126,34,0.1)"/>
      <stop offset="100%" stop-color="transparent"/>
    </radialGradient>
    <radialGradient id="mg3" cx="50%" cy="60%" r="30%">
      <stop offset="0%" stop-color="rgba(240,165,0,0.06)"/>
      <stop offset="100%" stop-color="transparent"/>
    </radialGradient>
  </defs>
  <path d="M670,151L673,152L676,150L679,149L682,146L685,146L688,147L691,146L695,146L697,143L698,147L701,147L704,146L708,146L703,148L700,149L699,152L698,155L694,155L694,158L693,161L690,162L686,163L684,167L681,168L678,168L674,169L669,167L672,165L669,162L668,158L669,154L670,151Z M545,266L547,270L550,272L553,272L556,270L560,270L561,273L561,276L562,281L565,280L566,283L567,286L561,286L561,295L564,299L559,300L553,299L539,298L536,297L533,298L533,294L534,291L535,288L537,285L538,281L536,277L537,274L536,271L534,267L537,266L545,266Z M557,134L558,137L556,140L554,137L554,134L555,131L557,134Z M643,183L646,183L650,183L654,179L657,181L654,184L653,187L644,186L643,183L643,183Z M318,403L315,403L312,402L309,402L309,396L312,400L315,401L319,402L318,403Z M320,311L325,311L331,316L337,319L340,320L337,325L340,326L343,327L348,324L348,321L351,323L349,326L344,330L340,334L338,339L339,342L338,346L341,348L342,351L340,356L335,358L330,358L327,358L327,362L323,364L320,363L320,367L323,367L319,371L319,374L315,375L312,379L315,381L318,381L317,384L313,385L312,389L309,390L309,394L300,394L299,391L296,390L296,387L299,384L300,380L301,377L302,374L300,371L300,367L300,363L302,358L302,354L305,350L306,345L306,342L304,337L306,334L307,329L308,326L310,323L310,318L313,317L314,314L316,311L320,311Z M621,136L625,135L627,138L629,142L626,140L623,139L621,136Z M335,472L333,475L327,475L321,475L317,474L322,473L328,473L332,471L335,472Z M58,471L52,471L49,470L45,468L52,468L55,469L58,471Z M375,467L378,468L380,471L375,473L371,474L366,475L360,475L353,475L350,474L356,472L360,470L363,468L366,467L370,466L375,467Z M163,454L167,455L170,454L166,456L162,456L159,455L163,454Z M225,450L228,450L231,450L227,451L224,451L220,451L217,451L221,450L225,450Z M310,447L309,450L306,451L303,451L299,451L294,451L295,448L300,448L301,445L302,442L305,441L308,445L310,447Z M337,428L334,428L330,429L326,431L327,434L323,435L320,437L319,440L322,441L326,443L327,446L330,450L331,453L330,456L324,457L321,459L317,460L313,461L310,461L306,462L299,463L295,463L290,463L285,463L291,465L294,465L288,467L284,468L287,471L291,473L297,473L302,474L306,475L311,476L317,476L324,477L329,478L334,479L337,480L342,480L346,479L351,478L357,478L362,477L369,477L375,477L381,478L387,476L394,476L399,475L404,475L410,474L416,474L421,473L418,471L412,470L406,471L401,471L401,468L406,466L411,466L414,465L417,464L420,463L424,462L427,462L434,462L438,461L441,461L444,460L447,460L451,459L454,458L457,456L454,455L457,453L460,453L463,452L466,451L469,449L475,448L479,449L484,447L488,449L492,448L495,448L498,448L502,448L505,448L508,447L511,447L514,446L517,446L520,445L524,445L528,446L533,446L537,444L541,445L544,445L547,444L551,444L557,444L560,445L563,446L566,446L569,446L572,446L575,446L578,445L581,445L586,444L589,443L593,441L597,441L600,442L603,442L607,444L610,443L614,441L617,441L623,440L627,438L632,438L636,436L639,436L642,435L646,433L649,433L654,433L657,433L661,436L666,437L671,439L676,438L681,438L686,438L689,439L694,442L691,444L688,445L692,446L689,450L694,451L697,450L700,448L703,446L707,444L710,444L713,443L716,443L720,440L725,439L728,437L733,437L738,436L741,437L744,434L747,436L752,437L757,437L760,437L764,437L769,437L772,437L777,437L780,435L786,432L790,433L795,436L798,436L803,436L806,435L810,434L814,434L818,434L821,435L824,435L829,437L833,437L836,437L840,435L845,435L848,435L853,435L858,435L863,435L866,434L869,434L872,434L875,433L878,435L882,436L885,436L889,436L895,436L901,436L904,436L907,439L910,439L913,440L917,440L921,441L924,441L927,441L931,441L936,443L939,443L942,443L947,445L952,446L955,446L958,447L961,447L965,447L968,447L971,448L974,448L974,451L970,455L967,455L961,457L958,459L955,461L954,464L958,467L963,468L959,469L955,470L949,470L947,473L944,475L948,476L951,478L955,479L959,480L963,481L969,481L979,483L989,484L995,485L1000,485L0,485L3,484L8,485L11,484L16,485L19,484L28,483L31,484L36,485L44,486L50,486L61,487L69,486L81,487L87,488L95,487L102,486L92,485L83,484L73,482L76,479L71,477L64,475L71,475L78,475L82,476L86,475L91,474L89,471L85,470L79,470L74,470L69,470L63,468L60,464L64,465L69,464L73,464L80,465L83,464L87,464L90,463L94,462L94,459L97,459L103,459L107,459L111,459L114,458L118,458L121,457L124,456L127,457L133,456L136,457L140,457L144,456L148,457L152,457L156,457L160,457L164,457L167,457L170,456L174,456L177,456L180,456L183,455L186,457L191,457L194,458L198,458L201,459L205,459L209,458L213,458L217,459L220,459L219,456L215,456L212,452L218,452L221,452L225,453L229,454L232,454L236,454L240,454L243,453L246,454L250,454L254,453L258,453L261,453L267,454L270,455L274,455L277,453L280,454L284,454L288,455L292,455L295,455L298,454L301,454L305,453L309,453L313,451L312,448L310,445L311,442L313,439L313,436L317,434L321,432L325,430L328,429L331,428L334,428L337,426L341,426L337,428Z M904,363L907,364L910,363L912,367L911,370L908,371L904,369L902,364L904,363Z M899,288L902,289L904,292L904,295L906,299L907,303L910,304L913,307L916,312L919,312L919,315L922,318L925,320L925,324L927,328L926,331L925,334L925,338L921,342L919,345L919,348L917,351L917,354L912,355L909,356L906,358L902,357L899,358L895,357L891,356L888,352L886,349L884,346L880,348L882,345L883,341L881,344L878,347L876,344L872,341L869,339L865,337L860,338L856,339L853,340L850,339L847,341L843,344L839,344L835,344L831,346L828,347L824,347L821,346L820,343L822,339L820,335L820,332L818,329L817,326L815,323L816,319L815,316L816,312L821,310L824,308L828,307L831,306L836,305L838,302L840,299L842,296L845,295L847,292L850,290L853,288L857,291L860,292L861,288L863,285L866,284L866,281L869,282L873,283L876,284L879,283L880,286L877,290L879,293L882,295L885,297L889,299L892,297L893,294L893,290L893,286L894,283L896,280L897,283L899,286L899,288Z M547,116L545,120L542,120L538,121L534,120L531,120L528,120L532,118L535,118L538,114L541,114L545,115L547,116Z M632,136L635,134L638,137L637,141L636,144L633,142L629,142L627,139L625,136L628,136L632,136Z M581,262L581,259L585,257L585,260L581,262Z M509,107L514,107L517,109L516,112L513,111L510,110L507,109L509,107Z M507,233L504,231L505,225L503,222L502,219L505,218L508,216L510,219L510,222L508,225L508,228L507,233Z M492,223L489,223L486,222L486,218L488,215L491,212L494,210L497,208L501,209L503,213L506,215L505,218L502,219L499,219L492,220L492,223Z M757,189L757,193L756,190L754,187L751,187L748,189L747,186L746,183L747,180L746,177L750,178L755,180L755,183L755,186L757,189Z M563,127L567,128L571,129L576,127L579,129L577,132L573,134L570,135L566,135L562,132L563,129L563,127Z M553,125L554,128L552,132L549,130L546,128L544,124L547,124L550,125L553,125Z M565,100L568,100L571,99L574,97L578,94L581,95L586,96L587,100L590,101L587,102L588,105L585,106L581,107L578,107L573,106L570,106L567,107L564,104L565,101L565,100Z M252,201L255,199L255,202L254,205L252,201Z M325,311L322,311L316,311L312,314L311,310L309,307L310,304L308,301L308,296L308,293L308,290L309,286L307,280L310,281L313,279L319,277L319,280L321,285L324,285L327,287L330,287L332,290L333,295L338,295L338,298L340,303L338,306L333,304L328,305L327,308L326,312L325,311Z M340,334L344,330L347,327L351,325L350,321L349,318L346,317L346,313L343,311L339,311L339,308L339,305L340,300L338,297L333,295L332,292L332,288L329,287L326,286L321,285L318,282L318,279L315,278L311,280L307,280L304,281L304,276L299,278L297,275L294,271L297,268L298,265L301,263L306,262L307,254L305,251L306,248L306,245L311,245L314,247L318,248L321,246L324,244L321,243L321,239L325,240L328,238L331,237L334,238L333,242L334,245L337,246L340,245L343,245L346,243L349,244L352,244L355,241L357,238L360,245L359,249L365,251L371,253L375,254L376,257L379,257L385,258L389,258L393,260L397,263L401,264L403,269L402,275L397,281L395,284L392,288L392,294L391,298L390,301L390,304L387,308L386,311L383,314L380,314L376,315L371,317L368,319L365,322L365,325L365,328L362,331L359,336L355,340L352,344L352,341L348,337L345,336L342,334L340,334Z M755,173L753,176L749,176L749,172L752,172L755,173Z M571,301L573,304L576,307L578,310L582,311L578,313L575,315L574,318L571,321L567,321L563,321L560,324L557,324L556,319L555,311L558,311L558,301L564,300L567,300L570,299L571,301Z M542,229L545,229L550,228L553,226L556,225L560,221L564,219L565,222L565,225L568,227L572,231L576,235L573,236L570,236L565,237L562,239L558,238L554,236L551,240L548,240L544,244L543,241L542,238L540,235L541,232L542,229Z M323,121L328,121L325,122L322,121L323,121Z M328,114L323,113L328,113L328,114Z M157,115L151,114L148,112L144,111L148,110L151,110L153,113L156,114L157,115Z M344,109L342,112L346,111L349,112L351,115L354,118L351,121L350,118L346,120L341,118L335,118L335,115L338,114L341,109L345,107L344,109Z M131,100L134,100L133,103L136,105L133,104L130,102L131,100Z M263,68L267,69L270,70L273,71L276,72L271,73L266,73L262,75L258,73L260,70L261,67L263,68Z M289,63L286,64L287,61L291,61L289,63Z M234,58L229,58L223,57L227,55L230,56L233,57L234,58Z M248,57L248,60L252,58L256,59L257,63L260,61L262,56L266,56L270,57L274,58L272,61L274,64L268,66L265,66L262,65L258,69L254,72L250,72L248,75L245,75L241,78L238,81L237,86L241,87L244,91L248,91L253,92L257,94L261,95L264,96L268,97L271,97L272,102L274,105L278,108L282,104L280,100L283,97L286,95L287,91L282,87L285,84L284,81L283,77L290,77L293,77L297,77L301,79L307,80L307,83L308,86L312,88L316,87L319,84L323,85L326,88L329,92L332,95L335,97L339,97L342,101L345,102L345,105L341,107L337,108L333,110L329,111L323,110L318,110L313,112L310,114L306,117L302,120L305,119L309,116L315,114L319,113L322,115L319,116L320,119L321,122L325,123L329,123L332,119L334,122L330,124L324,126L318,129L316,126L321,124L317,124L314,125L312,119L309,119L306,120L304,124L301,125L296,125L292,125L288,128L284,129L281,129L277,132L274,133L271,134L271,131L271,127L271,124L268,123L265,121L262,119L257,117L252,117L248,116L245,116L240,115L237,114L230,114L220,114L211,114L203,114L194,114L186,114L178,114L175,114L167,114L159,114L153,111L146,109L144,106L141,103L137,99L139,96L134,93L131,90L127,86L124,84L121,85L118,86L114,83L111,83L108,82L108,67L108,56L114,57L118,58L121,59L127,57L131,57L135,56L139,55L143,56L146,55L151,57L154,55L158,57L163,56L167,57L173,58L177,59L180,59L184,60L180,61L185,62L192,62L195,61L198,63L201,61L198,60L203,59L207,60L210,61L213,61L218,62L222,62L227,62L233,60L233,63L237,61L238,58L235,56L232,55L232,52L236,50L239,51L242,52L246,55L243,56L248,57Z M183,47L188,47L192,49L195,47L199,51L199,47L204,47L207,48L209,51L214,54L219,55L215,57L210,59L206,58L202,58L197,59L190,59L185,60L180,58L177,58L174,56L180,55L184,55L188,55L182,54L176,54L172,54L177,52L173,52L168,51L171,49L180,46L183,47Z M210,46L207,48L203,46L208,45L210,46Z M288,47L285,48L282,48L279,48L275,46L283,45L288,47Z M260,47L264,46L271,45L276,48L281,49L284,48L290,49L294,51L299,51L302,53L309,54L314,58L309,59L315,61L320,62L324,64L328,64L322,69L319,68L315,66L311,66L314,69L317,70L320,74L316,75L309,73L313,75L316,77L309,77L303,75L299,74L296,72L292,70L284,72L284,69L289,69L295,68L298,63L292,60L286,59L285,56L281,55L274,56L264,56L258,55L254,54L251,53L254,52L250,52L249,49L252,47L262,45L260,47Z M221,45L225,45L230,45L232,48L231,51L227,52L224,52L215,49L221,48L218,46L221,45Z M241,48L238,50L235,50L233,47L237,44L243,44L249,45L244,47L241,48Z M165,52L158,53L150,50L153,47L156,45L153,44L162,43L166,44L173,44L176,45L179,46L176,47L169,49L165,51L165,52Z M240,42L234,43L231,42L237,40L240,42Z M226,37L229,38L227,42L223,42L220,42L215,40L218,38L222,37L226,37L226,37Z M199,38L203,39L206,39L205,42L195,42L188,43L184,43L189,41L177,42L173,41L177,38L187,38L192,40L197,40L193,38L196,37L199,38Z M237,36L240,37L246,37L250,39L256,40L260,40L264,40L270,39L275,40L278,41L272,43L269,43L261,43L255,43L251,43L243,42L242,39L239,38L233,38L230,37L237,36Z M177,34L175,37L172,38L167,39L163,39L159,39L163,36L169,35L173,35L177,34Z M194,34L189,35L185,34L191,33L195,33L194,34Z M234,33L230,34L227,33L230,31L235,32L234,33Z M222,32L219,33L214,32L208,32L211,31L207,31L212,30L220,31L222,32Z M258,29L262,30L258,30L253,33L248,33L242,32L239,31L236,30L233,29L233,26L238,25L243,24L247,26L252,26L256,27L258,29Z M310,19L317,19L323,20L328,20L321,22L315,23L312,24L318,24L312,25L307,26L302,28L297,29L286,30L290,30L288,33L284,34L278,36L284,36L276,38L269,38L261,38L257,38L251,38L256,36L257,33L264,35L260,33L256,32L263,31L260,29L266,27L273,26L266,26L257,26L252,25L249,24L246,23L250,22L253,22L258,21L263,20L266,21L269,21L275,19L280,19L288,19L298,19L304,19L310,19Z M527,118L529,121L526,121L523,122L520,123L517,121L519,118L523,118L527,118Z M309,396L309,402L312,402L309,404L306,403L303,403L299,401L296,400L293,397L299,399L302,400L305,397L309,396Z M311,310L312,314L313,317L310,318L310,323L308,326L307,329L306,332L304,337L305,342L306,345L304,348L302,352L303,357L301,361L301,367L300,371L302,374L301,377L300,380L299,383L298,386L296,390L299,391L300,394L307,395L310,395L307,395L303,397L303,400L298,399L295,397L292,395L292,392L290,385L294,380L290,380L293,377L293,373L297,373L298,368L295,370L294,366L295,361L296,356L296,353L298,349L300,344L302,340L301,336L301,330L303,327L304,321L304,316L305,309L305,305L305,301L308,301L310,304L309,307L311,310Z M806,198L802,199L802,196L806,194L807,197L806,198Z M855,112L859,113L863,115L868,117L875,115L874,118L872,122L870,125L866,124L865,127L864,131L861,131L856,133L852,134L847,137L841,140L836,142L839,138L835,137L832,139L828,141L828,144L833,147L836,145L840,146L836,148L832,151L834,155L837,160L839,164L839,167L838,172L834,175L832,178L830,182L826,184L822,187L819,187L816,187L811,190L808,191L805,194L805,191L801,190L797,189L794,186L790,187L785,187L782,188L783,191L779,190L776,189L776,186L774,183L771,184L771,180L774,178L774,174L772,171L767,171L767,168L763,169L759,170L757,173L753,172L750,171L747,174L742,172L738,172L734,170L731,168L726,165L721,164L718,159L719,155L716,151L712,150L709,147L708,144L705,143L705,140L708,138L713,138L717,136L723,133L725,130L722,125L728,124L731,119L737,119L738,115L741,115L744,113L747,116L751,118L752,123L756,125L760,125L763,127L766,130L771,131L776,132L780,131L783,132L787,134L790,134L795,133L799,132L803,132L807,131L811,128L811,125L815,126L818,124L822,123L826,120L830,120L833,119L830,117L826,118L823,117L823,114L824,111L827,112L831,111L834,107L835,104L840,102L843,102L847,102L850,103L852,106L854,109L855,112Z M492,236L489,236L484,236L479,238L479,235L476,232L476,229L478,226L477,223L481,222L484,222L487,223L490,222L493,227L492,230L491,233L492,236Z M536,244L533,244L527,244L527,241L524,238L524,235L526,232L529,230L533,231L534,228L536,224L538,220L540,217L539,214L542,218L543,222L539,222L540,225L543,229L541,232L540,235L542,238L543,241L544,244L540,244L536,244Z M586,240L585,244L584,247L583,251L582,254L581,258L581,262L582,265L582,268L585,273L581,273L580,277L579,280L579,283L582,284L582,287L579,285L576,284L572,283L569,281L566,280L563,281L562,277L561,273L560,270L557,270L554,270L551,272L547,271L546,268L537,266L534,267L535,264L538,263L541,264L544,261L544,258L546,255L549,252L550,249L550,245L551,242L552,238L556,237L560,238L563,237L568,236L571,235L575,236L578,238L581,238L586,240Z M536,263L533,264L531,261L532,258L535,257L539,257L540,254L538,250L540,247L537,246L540,244L544,245L546,241L549,240L550,243L549,248L549,251L546,255L544,258L544,261L541,264L538,263L536,263Z M291,250L288,249L285,249L281,246L282,243L285,241L285,237L285,234L285,231L285,228L289,224L290,221L294,219L298,217L301,215L300,218L297,221L296,225L299,227L299,230L304,230L307,233L310,233L313,233L312,237L313,240L313,243L314,247L312,244L306,245L308,248L305,251L307,254L306,262L305,258L302,257L299,257L295,254L293,251L291,250Z M270,227L267,226L265,223L262,222L262,219L265,219L268,220L271,223L270,226L270,227Z M271,186L274,186L279,187L282,187L286,190L290,192L294,194L290,195L284,195L283,192L280,190L277,189L273,188L270,187L267,188L264,189L267,187L271,186L271,186Z M547,115L542,114L538,114L535,112L537,109L540,108L543,109L546,111L549,110L552,113L549,114L547,115Z M528,97L530,100L533,99L538,100L539,103L541,106L539,109L536,110L536,113L537,116L534,117L529,118L524,117L521,118L522,114L518,113L517,109L517,106L520,102L523,101L524,97L528,97Z M620,215L620,218L616,219L617,216L620,215Z M535,96L531,96L534,94L535,96Z M530,93L527,96L524,97L522,93L526,91L529,90L529,93L530,93Z M301,195L305,195L308,196L309,199L306,199L303,199L300,198L301,195Z M533,185L524,190L516,196L512,197L509,197L506,194L496,187L486,181L476,174L476,170L480,168L483,167L487,165L490,164L493,161L496,160L495,156L494,152L497,151L500,150L504,148L509,148L513,148L517,147L520,147L523,147L523,151L523,154L521,157L523,160L526,166L527,170L527,173L527,176L528,180L532,183L533,185Z M277,259L278,256L275,256L275,253L278,249L281,246L284,248L287,249L291,250L291,253L287,257L284,258L282,261L280,264L277,262L277,259Z M597,168L596,171L593,172L590,167L591,170L593,173L595,177L597,180L599,184L602,188L591,189L581,189L569,189L569,179L569,169L569,165L570,162L574,162L579,164L582,163L586,162L589,164L592,164L595,163L597,168Z M618,215L614,212L611,210L607,210L604,211L601,210L602,205L603,202L607,200L608,203L609,206L614,210L617,213L620,215L618,215Z M475,134L474,130L478,128L481,129L485,129L488,129L495,129L501,132L505,132L508,132L506,135L502,136L500,139L500,142L498,145L494,148L491,148L488,148L485,150L482,147L479,147L480,144L479,140L481,136L478,134L475,134Z M568,89L565,87L568,85L572,84L575,85L578,85L577,89L574,90L571,89L568,89Z M605,208L609,209L614,211L617,214L616,218L619,220L620,223L630,228L633,228L625,236L621,236L617,238L614,239L611,239L608,240L602,238L599,237L596,232L593,229L594,226L594,223L595,220L598,216L601,212L604,211L605,208Z M579,58L583,62L584,67L582,70L585,72L588,75L584,78L578,82L573,82L568,83L564,84L559,81L558,76L562,73L569,70L566,67L565,61L561,59L557,58L562,59L566,59L569,59L573,56L577,55L581,56L579,58Z M330,394L333,392L336,393L340,393L335,395L331,395L330,394Z M510,110L513,111L516,112L522,114L521,118L517,120L519,123L519,127L518,130L513,129L509,130L505,132L502,131L496,130L497,122L494,119L488,117L491,114L496,115L495,112L504,111L505,108L509,109L510,110Z M531,261L528,258L524,253L526,249L531,247L531,244L534,244L537,246L540,247L538,250L540,254L539,257L536,257L533,257L533,260L531,261Z M492,87L489,90L492,90L495,90L491,95L494,95L497,98L501,102L505,104L504,108L498,109L493,110L490,110L487,110L484,111L488,108L491,107L486,107L487,103L491,102L490,98L487,98L486,95L483,92L484,89L488,87L492,87Z M615,135L615,132L612,130L618,130L622,131L626,132L629,134L626,135L621,136L618,134L615,135Z M503,234L499,235L495,237L492,236L491,233L492,230L493,227L492,223L492,220L497,219L500,219L501,222L501,226L501,229L502,233L503,234Z M477,229L474,230L473,226L470,225L469,222L466,223L463,225L460,222L458,219L461,218L462,215L465,216L468,216L471,217L474,216L477,218L477,221L478,224L477,227L477,229Z M453,213L457,212L460,212L457,213L453,213Z M458,219L455,218L455,215L462,215L461,218L458,219Z M574,135L571,137L566,137L563,138L565,141L567,144L564,145L564,149L560,148L559,145L558,142L557,139L560,136L563,136L566,135L570,135L573,135L574,135Z M370,20L379,19L389,19L393,18L403,18L425,18L442,20L437,21L426,21L411,22L423,22L431,23L436,22L439,23L436,25L443,24L456,22L465,23L455,26L444,27L451,27L448,29L445,31L445,34L449,36L444,36L440,37L445,39L446,44L440,44L443,45L438,46L435,46L438,48L433,48L439,51L440,54L435,54L432,53L429,52L427,55L434,55L438,55L430,58L423,60L415,61L412,61L409,62L405,65L399,67L393,68L389,68L387,72L381,76L381,80L380,83L376,83L371,81L366,81L363,79L357,73L355,69L351,66L350,63L353,60L357,59L359,56L356,57L352,58L348,57L349,53L352,53L357,54L352,52L347,52L348,48L344,45L341,42L337,41L330,39L324,38L316,39L310,39L306,38L302,36L309,35L315,35L303,34L296,33L307,31L317,29L311,27L323,24L327,24L333,22L341,22L350,22L353,23L360,21L367,22L371,22L376,23L370,22L370,20Z M250,212L247,211L244,210L245,205L249,205L246,202L250,201L252,206L255,206L252,208L251,211L250,212Z M354,243L351,244L349,241L349,238L350,234L353,235L356,237L355,241L354,243Z M334,227L338,230L341,233L341,236L339,239L341,242L343,245L340,245L337,246L334,245L333,242L335,239L333,236L329,233L332,231L332,228L334,227Z M257,214L256,211L253,211L252,208L255,206L259,206L262,206L265,206L268,208L265,209L262,211L259,212L257,214Z M552,122L553,125L550,125L547,124L544,124L545,127L548,129L552,132L549,131L544,129L541,126L538,125L541,123L544,123L547,121L551,123L552,122Z M297,195L301,195L301,198L298,200L295,200L298,199L298,196L297,195Z M545,120L545,117L549,117L552,117L555,116L558,115L561,116L560,119L556,122L552,122L549,122L546,121L545,120Z M828,272L831,274L828,275L824,275L827,273L828,272Z M841,272L837,275L833,274L837,274L841,272Z M802,269L807,269L813,269L818,272L821,273L818,274L815,273L810,273L807,273L804,272L801,272L796,270L793,269L795,266L798,267L801,268L802,269Z M862,259L859,259L855,259L859,258L862,259Z M873,253L873,258L876,259L879,256L882,255L887,256L892,257L892,266L892,275L889,273L886,272L882,273L885,270L884,267L878,263L875,262L871,260L867,258L870,257L867,256L864,254L868,251L872,252L873,253Z M848,246L846,249L841,249L836,249L833,251L836,254L843,252L840,254L840,259L842,263L841,266L841,262L838,263L836,260L836,257L834,261L835,265L832,265L832,262L830,258L831,254L833,250L836,246L841,248L845,247L848,246Z M857,247L855,251L854,247L855,244L857,247Z M827,245L831,247L827,248L826,252L824,257L823,261L819,261L816,260L811,260L808,258L806,254L803,251L803,246L807,248L811,247L816,247L820,242L822,238L825,238L826,241L828,244L827,245Z M794,266L791,266L785,262L782,258L778,252L776,249L774,245L771,243L768,239L765,236L771,235L773,238L777,241L780,244L785,246L788,250L789,253L791,257L795,259L794,262L794,266Z M716,151L719,155L720,158L719,162L725,166L722,170L725,171L728,172L731,174L735,174L739,176L742,177L745,177L745,174L749,176L753,176L756,175L759,170L763,169L767,168L767,171L770,171L770,175L764,176L763,180L761,184L759,187L756,184L753,185L757,181L752,180L748,178L745,178L745,181L746,184L747,189L742,190L740,194L736,196L733,199L728,203L724,206L723,212L722,217L722,221L719,223L717,227L713,225L711,221L709,217L707,211L704,206L703,200L702,197L702,193L698,192L692,189L689,184L697,182L695,179L695,176L696,172L699,172L702,170L704,167L707,164L709,160L706,157L706,153L710,154L714,154L716,151Z M483,100L481,105L476,106L472,106L475,103L473,100L477,98L480,98L483,100Z M650,147L654,145L657,144L662,146L665,146L668,149L669,154L669,157L669,161L672,165L669,167L672,170L674,174L672,177L671,180L666,179L663,179L659,179L658,175L655,175L652,176L649,176L646,173L643,173L641,170L639,166L636,166L633,165L633,162L628,158L627,153L626,150L624,147L623,144L623,140L626,142L629,142L632,140L635,144L639,146L645,148L650,147L650,147Z M626,150L628,153L626,156L631,160L632,164L635,167L631,167L624,169L616,163L612,161L609,161L608,157L614,154L615,151L616,148L619,146L622,147L626,150Z M460,65L462,69L459,71L451,73L448,74L445,73L437,72L440,71L433,70L438,69L432,68L439,66L443,67L447,66L451,67L455,65L460,65Z M599,159L598,162L597,168L595,163L597,159L600,158L599,159Z M543,144L543,147L540,147L535,146L538,144L541,144L543,144Z M526,136L527,141L524,142L523,138L526,136Z M534,120L538,121L534,124L535,128L538,129L542,133L545,134L549,136L551,139L547,138L547,142L544,145L544,142L543,139L539,137L536,135L531,132L528,128L525,127L522,128L519,127L520,124L523,122L526,121L529,121L534,119L534,120Z M599,160L602,160L608,157L609,161L603,162L606,165L602,167L597,168L598,164L599,160Z M874,155L873,158L870,158L869,155L872,155L874,155Z M892,147L891,150L886,154L881,154L877,157L875,154L870,155L867,156L864,156L867,158L865,163L862,163L862,160L859,158L862,157L866,153L874,151L877,151L880,146L886,145L889,140L889,137L893,135L894,139L892,144L892,147Z M900,127L904,127L904,130L900,131L893,131L892,134L889,135L888,132L893,129L894,126L894,123L898,126L900,127Z M697,133L692,135L689,136L685,136L685,133L680,129L676,129L672,129L667,126L663,124L655,125L655,135L652,133L647,133L643,130L640,127L643,124L647,124L647,120L642,119L639,121L636,121L633,117L629,116L631,113L632,110L635,111L641,106L645,106L651,108L655,109L658,108L662,108L666,110L670,109L667,106L671,103L671,100L681,99L689,97L692,96L697,97L698,100L701,99L704,100L707,101L714,99L716,102L722,109L728,109L732,108L736,111L741,112L741,115L738,115L738,118L731,119L729,124L722,125L725,130L721,132L716,131L711,131L706,130L700,131L697,133Z M614,252L616,255L613,257L611,260L609,263L605,260L595,253L594,250L596,247L596,242L594,238L598,235L600,238L606,240L610,240L613,238L616,239L614,242L614,252Z M697,133L700,131L704,132L710,131L716,131L720,131L723,132L718,134L714,136L710,137L705,139L699,141L696,140L693,140L696,139L699,138L703,136L700,135L696,135L697,133Z M787,220L785,216L784,213L786,210L790,210L795,211L798,211L799,216L794,218L790,221L787,220Z M857,143L859,146L860,151L856,153L851,154L852,151L850,148L850,145L853,144L856,143L857,143Z M633,167L634,171L629,169L633,167Z M792,210L793,207L791,204L789,199L786,200L781,201L781,196L778,193L781,190L784,188L787,192L790,192L791,195L792,198L794,201L796,204L799,208L798,211L795,211L792,210Z M479,238L475,237L472,234L468,231L470,228L473,226L474,229L477,229L476,232L479,234L479,238Z M541,186L538,186L533,185L530,182L526,178L527,175L527,172L527,168L528,165L530,162L532,158L535,159L539,159L542,160L544,163L550,165L553,166L556,164L556,160L560,159L564,159L569,161L569,164L569,167L569,179L569,189L569,194L566,194L555,190L544,185L541,186Z M727,229L727,232L723,233L721,227L723,223L726,226L727,229Z M580,330L581,333L578,335L575,333L578,330L580,330Z M563,99L559,97L558,94L562,94L566,94L569,93L574,96L571,99L568,100L565,100L563,99Z M558,94L560,91L563,90L567,92L568,89L571,89L574,90L577,91L578,94L575,95L571,94L566,94L562,94L558,94Z M486,151L490,152L493,152L495,156L496,159L493,161L490,162L487,165L483,167L480,168L476,170L476,173L473,175L468,175L467,178L465,181L461,184L460,188L453,190L455,187L456,184L459,180L460,177L464,173L468,172L471,169L473,163L474,160L479,156L483,152L486,151Z M574,116L578,116L581,117L582,120L579,123L578,120L576,117L574,116Z M638,285L639,288L639,291L640,294L638,297L637,300L636,303L635,307L633,312L632,316L631,319L626,321L622,319L621,315L620,311L622,308L624,304L622,301L622,298L623,295L626,294L629,294L633,291L633,288L636,286L637,283L638,285Z M230,178L229,181L228,186L229,189L230,193L233,196L237,198L240,199L244,198L248,196L249,192L254,190L257,190L257,194L257,197L254,199L250,201L247,201L248,204L245,205L244,208L241,207L237,205L233,206L230,206L225,204L220,202L217,200L212,199L208,196L206,193L208,190L205,187L203,184L200,182L196,179L195,176L193,173L190,171L187,167L186,164L183,162L181,166L184,169L187,173L190,176L191,179L193,183L196,185L192,183L188,181L188,178L185,176L182,175L183,172L181,169L178,166L176,162L178,159L181,159L185,161L192,163L197,163L204,162L207,164L210,168L214,170L215,167L218,167L221,170L224,174L225,177L229,178L230,178Z M557,134L560,133L564,133L563,136L560,136L557,136L557,134Z M466,209L470,208L473,208L485,207L483,193L482,181L486,181L496,187L505,193L509,195L512,197L512,203L510,207L504,207L501,209L497,208L494,210L491,212L488,213L485,217L485,220L482,221L479,222L476,220L476,217L473,216L470,216L468,213L466,209Z M777,194L773,195L772,198L772,201L775,205L773,208L775,212L777,217L775,220L773,217L774,214L772,209L771,205L768,204L765,206L762,205L763,202L762,199L760,196L757,193L756,190L759,188L759,183L763,181L764,178L768,174L771,173L774,174L774,178L771,180L771,184L774,183L775,186L776,189L779,190L778,193L777,194Z M555,132L552,133L552,130L555,130L555,132Z M744,113L747,113L752,110L756,109L759,110L762,110L766,111L770,112L773,110L775,105L778,107L784,108L788,111L791,110L794,110L797,110L800,112L804,113L807,114L810,113L814,112L818,110L821,112L824,111L823,114L822,117L826,118L830,117L833,119L830,120L826,120L822,123L818,124L815,126L812,125L809,127L807,131L803,132L799,132L795,133L792,134L787,134L783,132L780,131L776,132L771,131L768,131L765,127L760,125L756,125L753,124L753,120L747,116L744,115L744,113Z M596,282L601,283L604,282L607,281L610,280L612,283L613,289L612,293L610,296L607,298L604,299L601,302L598,304L596,307L598,311L599,314L598,317L595,319L592,320L591,323L588,322L589,318L587,312L590,309L591,306L591,302L591,296L588,295L584,294L584,291L592,289L595,290L595,293L597,297L599,294L599,291L597,288L595,284L596,282Z M466,209L463,205L460,204L457,205L454,205L455,202L455,197L455,194L453,191L464,191L464,187L467,185L467,178L476,178L476,174L486,181L482,181L483,193L485,205L473,207L470,208L467,209L466,209Z M596,282L596,288L599,291L599,294L597,297L595,293L595,290L592,289L592,286L592,282L593,279L591,276L594,276L596,282Z M781,233L784,233L787,237L787,240L788,243L790,246L785,245L782,242L780,239L778,235L778,232L781,233Z M829,238L825,238L822,238L821,241L818,246L813,246L809,247L805,246L809,245L811,242L814,241L817,237L820,238L821,235L824,231L827,232L831,235L829,238Z M545,329L542,325L541,321L540,316L540,313L539,310L536,305L533,300L536,297L539,298L551,298L559,300L564,299L567,298L570,299L567,300L564,300L560,301L558,311L555,311L555,319L555,329L551,331L548,330L545,329Z M960,309L963,310L960,310L956,307L960,308L960,309Z M506,217L503,214L501,211L503,208L508,207L512,203L512,197L516,196L524,190L533,185L538,186L541,186L542,191L544,195L543,200L542,204L539,206L538,210L539,213L536,212L532,213L528,213L525,214L522,213L519,214L515,211L512,212L510,215L510,218L507,216L506,217Z M524,237L521,238L516,238L514,234L510,233L507,233L508,228L508,225L510,222L510,219L510,215L511,212L515,211L518,213L522,213L525,214L528,213L531,213L534,214L537,212L539,215L540,218L537,222L535,226L533,229L531,232L528,230L524,235L524,237Z M262,219L259,216L256,214L259,213L262,212L264,209L267,209L268,212L268,216L267,219L264,220L262,219Z M517,101L520,102L519,105L517,109L514,107L511,108L513,103L517,101Z M578,52L587,54L583,55L586,57L582,58L579,58L577,55L573,56L569,59L566,59L562,59L559,57L556,58L550,60L547,61L542,66L538,70L535,72L533,75L533,78L534,83L531,87L523,88L520,89L516,87L515,84L514,78L524,74L529,71L534,67L541,62L546,60L553,56L559,55L564,55L568,53L573,53L578,52Z M569,34L562,35L558,34L564,32L569,34Z M551,29L560,31L553,32L549,34L548,37L544,37L538,35L541,34L537,33L531,31L537,28L542,29L547,28L551,29Z M571,27L576,28L572,29L564,29L556,29L551,28L548,27L557,26L561,27L564,26L571,27Z M745,173L745,176L742,177L739,176L735,174L731,174L728,172L725,171L722,170L724,167L729,166L733,169L736,170L742,172L745,173Z M981,364L984,365L981,369L981,372L976,373L974,378L970,380L966,379L963,378L964,375L968,373L971,371L974,370L977,366L980,362L981,364Z M985,350L987,353L991,355L994,354L995,357L992,359L990,363L987,366L987,362L983,360L985,356L984,352L981,348L984,348L985,350Z M664,191L661,193L661,197L657,198L654,201L651,203L648,204L644,197L653,194L655,189L653,186L656,183L659,184L663,185L666,187L665,190L664,191Z M709,147L712,150L716,151L714,154L710,154L706,153L706,157L709,160L707,164L704,167L702,170L699,172L696,172L693,175L695,179L697,182L691,182L687,183L684,179L679,180L675,180L671,180L672,177L676,176L674,172L670,169L674,169L677,168L681,168L684,167L686,163L690,162L693,161L694,158L694,155L697,156L699,152L700,149L703,148L706,148L709,147Z M284,230L283,227L280,225L277,227L277,230L274,229L271,227L270,224L273,225L276,225L279,223L282,224L285,226L285,229L284,230Z M307,299L302,299L296,295L291,292L288,288L286,284L283,279L280,273L278,270L274,267L274,263L277,259L277,262L280,264L282,261L284,258L287,257L290,254L291,250L294,253L297,256L301,256L305,258L306,262L303,262L298,265L297,268L294,271L297,275L299,278L302,278L304,281L307,280L309,285L309,288L307,292L308,296L307,299Z M851,227L851,230L851,233L850,230L849,233L845,233L845,230L842,229L839,231L840,228L843,226L846,226L849,225L851,227Z M844,221L843,224L840,223L842,220L845,219L844,221Z M829,224L825,227L829,223L832,218L832,221L829,224Z M849,216L849,219L847,222L845,218L845,215L848,215L849,216Z M837,199L840,199L840,203L838,206L838,210L841,210L844,212L845,215L842,214L839,212L836,212L835,209L833,205L834,201L837,199Z M933,269L930,266L933,268L933,269Z M922,265L919,267L916,268L912,266L915,266L919,265L921,262L922,265Z M909,271L913,275L917,277L917,280L914,279L911,278L907,275L906,272L902,271L898,273L896,276L892,275L892,266L892,257L896,259L902,261L905,264L910,267L909,271Z M925,262L922,260L919,258L922,258L925,261L925,262Z M542,108L541,105L540,102L545,99L549,98L552,98L555,99L558,99L563,99L566,103L565,107L566,110L563,113L560,113L557,113L554,112L551,111L547,110L543,109L542,108Z M863,132L860,134L859,137L855,139L855,142L852,145L849,145L846,144L848,141L845,139L851,136L854,135L860,132L863,132Z M475,134L478,134L481,134L481,138L480,142L480,145L478,148L475,148L476,145L474,142L475,138L475,135L475,134Z M326,312L327,308L328,305L333,304L336,304L339,308L339,311L342,312L345,312L346,315L349,317L349,320L348,324L345,326L340,326L337,325L340,321L337,319L333,317L326,312Z M563,117L566,117L569,117L572,117L575,116L578,120L578,124L581,124L579,129L576,127L572,128L567,128L564,128L560,126L558,123L560,119L563,117Z M899,109L902,114L898,113L896,117L899,120L895,122L894,117L894,114L895,108L894,102L895,99L898,103L898,106L899,109Z M14,65L23,64L28,67L25,68L21,68L21,71L17,71L11,70L8,68L5,68L0,67L0,70L0,58L7,61L14,63L14,65Z M899,47L895,47L889,46L895,45L899,46L899,47Z M919,41L915,43L911,42L906,41L912,41L919,41Z M903,40L891,42L886,43L880,41L886,39L893,39L903,40Z M660,54L649,53L643,51L646,49L651,45L655,43L661,40L670,38L679,38L684,37L689,36L680,40L671,41L662,44L658,46L654,49L660,54Z M797,36L800,37L809,37L815,38L816,41L813,42L806,43L811,45L814,45L817,46L821,45L830,46L842,47L848,46L853,46L857,47L857,50L860,52L865,53L867,50L872,52L877,51L882,52L889,51L890,48L915,49L918,51L925,53L936,53L942,53L944,56L947,57L951,57L956,56L961,57L966,57L971,59L974,58L973,55L982,56L988,56L996,57L1000,58L1000,70L996,71L993,71L997,74L998,77L993,76L985,78L982,79L978,81L974,82L969,82L962,84L958,84L954,84L950,88L953,90L953,94L950,94L950,98L945,99L945,102L940,103L940,106L936,108L933,102L932,96L933,92L936,89L940,89L945,85L950,82L955,80L957,76L953,76L952,79L945,82L943,78L935,79L928,84L931,86L924,86L920,87L916,84L913,86L904,85L895,86L886,91L875,98L880,98L884,101L889,99L893,103L891,108L890,111L889,115L885,119L880,125L876,128L871,131L867,130L864,132L865,127L866,124L870,125L872,122L873,119L875,115L870,116L864,117L859,113L855,112L854,109L852,106L850,103L847,102L843,102L840,102L836,102L835,106L831,109L827,112L824,111L821,112L818,110L814,112L810,113L807,114L804,113L801,113L797,110L794,110L791,110L788,111L784,110L780,107L775,105L772,108L770,112L766,111L763,111L759,110L756,109L752,110L747,113L744,113L741,112L738,112L734,110L728,109L724,107L716,102L713,100L707,101L704,101L701,99L698,100L697,97L692,96L689,97L682,98L671,100L671,103L667,106L671,108L666,109L662,108L658,108L655,109L651,108L645,106L641,106L635,109L632,110L630,113L629,116L633,117L635,121L632,123L630,126L632,129L635,134L632,136L629,134L626,132L622,132L618,130L614,129L611,129L607,127L604,126L606,122L609,119L606,119L610,117L610,114L607,111L604,110L598,110L595,108L594,105L591,105L588,105L587,102L590,102L587,100L586,97L583,95L578,94L577,91L576,87L581,83L578,82L584,78L588,75L583,73L582,70L584,67L581,64L579,60L582,58L586,57L589,56L594,57L601,58L612,61L614,64L611,66L607,67L594,65L597,67L597,71L601,72L603,69L610,71L610,68L617,65L622,66L621,63L621,60L628,60L627,64L633,64L640,61L649,59L652,61L659,60L663,59L667,60L670,58L667,57L676,57L680,58L690,61L689,58L686,57L685,54L690,50L694,47L702,48L700,52L702,58L705,60L698,66L701,66L705,64L708,62L708,58L705,58L707,54L703,52L708,50L712,52L715,49L721,49L726,51L724,48L724,45L728,45L735,45L741,45L742,41L745,41L751,40L758,40L766,39L769,39L775,38L780,38L783,35L790,34L795,35L791,36L797,36Z M792,32L776,34L781,30L784,30L793,31L792,32Z M642,26L638,27L635,27L632,28L629,27L625,26L630,26L634,26L639,25L643,26L642,26Z M778,31L772,31L764,30L759,29L753,27L760,25L767,24L772,26L778,28L778,31Z M584,253L585,256L582,258L581,255L584,253Z M476,175L476,178L467,178L467,185L464,185L464,191L453,191L459,190L461,184L465,181L467,178L468,175L471,175L474,175L476,175Z M619,205L617,201L615,198L612,194L609,191L609,187L607,184L604,183L603,180L601,176L598,172L597,168L600,169L604,167L603,162L608,161L612,161L616,163L624,169L629,169L632,169L636,173L639,176L640,179L642,182L644,186L653,188L653,194L644,197L636,198L632,202L629,202L626,202L622,202L619,205Z M594,224L594,221L592,218L589,217L588,221L583,221L580,224L577,223L574,224L572,221L569,223L567,226L565,223L564,220L562,216L562,213L562,210L564,206L566,196L569,194L569,189L581,189L591,189L602,189L603,192L603,195L604,198L607,200L603,202L602,205L601,209L601,212L600,215L597,219L594,223L594,224Z M594,224L594,227L595,230L598,235L594,238L591,239L587,239L583,238L580,238L576,235L573,232L570,229L566,226L569,223L572,221L574,224L577,223L580,224L583,221L586,223L590,219L591,216L592,220L594,224L594,224Z M454,212L451,209L454,207L455,204L458,204L461,205L464,207L466,211L468,215L465,216L462,215L457,215L454,216L453,213L456,214L459,213L462,212L459,212L454,212Z M944,273L941,272L944,273Z M468,231L465,230L464,227L465,224L469,222L470,225L470,228L468,231Z M636,224L633,228L630,228L621,224L618,221L620,218L623,221L627,220L630,220L633,219L636,218L636,222L636,224Z M638,218L641,217L642,220L640,224L639,228L637,231L635,235L633,238L629,242L622,247L617,253L614,252L614,242L616,239L619,238L625,236L633,228L635,225L636,222L636,219L638,218Z M558,124L562,126L563,129L562,132L559,131L556,131L553,129L554,125L552,122L556,122L558,124Z M341,233L345,234L350,234L349,238L349,241L349,244L346,243L343,245L341,242L339,239L341,236L341,233Z M552,113L555,113L558,113L563,114L558,115L555,116L552,116L549,117L548,114L551,113L552,113Z M538,121L541,121L544,120L544,123L541,124L538,124L538,121Z M562,67L559,69L555,73L550,76L548,80L552,83L550,86L547,87L546,92L541,94L536,96L533,90L531,87L534,83L535,80L533,75L535,72L538,72L542,66L545,63L549,61L555,60L561,59L565,61L565,66L562,67Z M589,324L585,324L586,321L589,323L589,324Z M608,157L602,160L599,159L600,156L600,152L602,149L606,147L610,148L613,147L618,147L615,149L614,154L608,157Z M540,214L539,211L539,206L542,204L543,200L544,195L543,192L541,186L544,185L555,190L566,196L566,207L563,208L563,211L561,214L563,218L560,221L558,224L553,225L550,228L546,229L542,229L542,226L539,223L543,222L542,218L540,214Z M505,233L502,233L501,229L501,226L501,222L500,219L503,222L505,225L504,231L505,233Z M785,216L782,215L778,213L778,216L776,220L776,224L779,227L781,231L784,233L781,234L778,232L775,228L773,225L774,222L777,217L776,214L773,209L775,205L772,201L772,198L773,195L777,194L781,196L781,199L784,200L787,199L791,202L793,207L792,210L786,210L784,213L785,216Z M697,138L693,139L696,140L699,141L705,140L705,143L708,143L708,146L705,146L702,147L698,147L698,144L695,144L692,147L689,147L690,144L687,141L690,140L693,137L696,136L697,138Z M670,151L665,146L662,146L659,144L656,145L652,146L649,145L650,142L648,139L647,136L650,137L649,133L647,136L647,133L650,132L654,135L659,135L663,131L667,133L671,135L673,139L676,141L681,143L685,145L682,146L679,149L676,150L673,152L670,151Z M847,275L850,273L853,273L850,275L847,276L847,275Z M526,166L525,161L521,157L523,154L523,151L523,147L526,146L531,147L529,150L530,153L529,156L532,158L530,161L528,164L526,166Z M603,135L607,136L610,136L615,135L618,134L621,136L623,139L623,144L624,147L619,146L614,147L610,148L607,148L603,148L600,150L596,148L590,150L585,148L582,150L577,148L575,145L574,142L576,138L580,138L587,136L590,134L593,133L598,133L603,135Z M576,137L573,138L574,135L578,133L581,135L577,136L576,137Z M838,182L837,187L834,187L835,182L839,181L838,182Z M594,253L605,259L609,263L608,266L610,269L609,272L610,275L611,278L607,281L604,282L601,283L598,282L595,278L591,276L588,274L585,273L584,270L582,266L581,262L584,261L585,258L586,255L589,253L594,253Z M589,253L585,253L582,254L583,251L583,248L586,245L586,240L589,240L593,239L596,240L597,245L595,249L594,253L589,253Z M588,105L591,105L594,105L595,108L598,109L602,110L606,111L611,112L611,116L608,117L604,119L600,120L597,121L599,124L594,127L590,124L593,123L588,121L585,121L582,124L578,124L580,121L583,121L582,118L578,116L575,116L572,117L569,117L566,117L563,117L562,114L565,110L565,107L568,106L573,106L576,107L579,107L584,107L588,105Z M340,334L345,336L348,337L351,339L351,342L351,346L347,347L344,347L341,346L338,344L338,339L339,336L340,334Z M237,113L240,115L243,115L248,116L251,117L255,116L260,118L264,120L267,122L271,124L271,127L271,131L269,134L274,133L277,132L281,131L284,129L287,129L291,126L296,125L301,125L304,124L306,120L309,119L312,119L312,123L314,126L311,127L308,128L305,129L303,132L306,134L302,135L299,135L295,136L299,136L296,137L294,140L291,141L291,144L289,147L288,144L288,141L288,144L288,147L290,151L285,154L282,156L277,160L274,163L274,167L276,171L278,175L277,178L274,179L272,176L270,173L270,169L267,167L264,168L260,166L257,166L254,166L251,166L252,169L248,169L245,168L241,167L237,168L234,170L230,173L230,176L227,178L224,175L222,172L220,168L215,167L214,170L211,169L209,166L205,163L199,162L192,163L185,161L181,160L178,159L175,160L172,157L169,155L166,154L162,150L160,146L156,142L154,138L155,133L155,129L155,126L155,120L154,117L158,117L159,114L167,114L175,114L178,114L186,114L194,114L203,114L211,114L220,114L230,114L236,114L237,113Z M75,91L72,92L73,89L76,89L75,91Z M69,52L72,53L77,53L81,54L84,54L90,55L95,55L101,55L105,56L108,56L108,67L108,82L111,83L114,83L118,86L121,85L124,84L127,86L130,88L134,93L139,95L137,98L133,96L133,93L129,91L125,88L120,88L117,88L111,85L104,83L100,83L95,82L91,81L88,81L87,84L84,84L79,86L79,81L82,80L78,81L72,85L72,88L69,90L66,90L61,93L57,96L52,96L49,97L42,99L45,97L48,96L51,95L54,94L59,92L62,90L64,86L61,87L58,88L55,86L52,87L50,84L45,84L41,82L39,79L42,76L45,74L49,73L53,73L53,70L49,71L46,71L42,71L38,70L33,68L37,66L43,65L51,66L45,64L41,61L37,60L43,59L47,57L50,55L53,54L58,53L61,53L65,52L69,52Z M685,146L681,143L678,142L673,139L672,136L668,135L663,131L658,134L655,135L655,125L663,123L667,126L670,127L676,129L680,129L684,131L685,136L689,136L692,135L696,133L698,136L703,136L699,138L696,138L693,137L690,140L687,141L690,144L688,147L685,146Z M302,217L301,220L300,223L303,223L302,220L305,218L309,218L311,221L316,220L320,222L325,220L328,220L329,223L331,226L334,227L333,230L330,231L331,236L328,238L325,240L320,238L321,241L324,243L322,246L318,247L314,247L313,244L313,241L312,237L313,233L310,233L307,233L304,230L300,231L299,228L298,225L297,221L300,218L302,217Z M800,190L796,193L794,197L796,200L798,204L801,205L802,208L804,213L803,218L798,221L796,224L792,226L792,222L795,220L799,216L799,212L799,208L796,204L794,201L792,198L789,196L790,192L787,192L784,188L788,187L793,185L796,187L800,190Z M648,204L645,206L642,208L638,209L635,211L632,212L627,213L624,215L621,215L620,212L619,209L619,206L620,203L626,202L629,202L632,202L636,198L644,197L647,202L648,204Z M588,331L585,335L580,339L576,342L573,343L570,344L566,344L563,344L560,345L557,346L554,347L551,344L550,341L551,338L549,335L545,329L548,329L551,331L555,329L555,319L558,322L558,325L561,323L565,320L570,321L574,318L575,315L578,313L582,311L585,312L588,316L588,321L585,323L587,326L591,324L590,329L588,331Z M591,276L593,279L592,282L593,285L591,288L584,291L580,295L577,298L574,300L570,299L567,298L564,299L561,295L561,286L567,286L566,283L566,280L569,281L572,283L575,282L578,284L580,287L582,284L579,283L579,280L580,277L580,274L584,273L587,274L591,276Z M587,312L584,312L580,310L577,308L573,304L571,301L574,300L577,298L580,296L582,293L587,294L590,296L591,300L591,304L590,307L587,312Z" fill="none" stroke="rgba(255,255,255,0.2)" stroke-width="0.8" stroke-linejoin="round"/>
  <rect width="1000" height="500" fill="url(#mg1)"/>
  <rect width="1000" height="500" fill="url(#mg2)"/>
  <rect width="1000" height="500" fill="url(#mg3)"/>
  <circle cx="195" cy="175" r="4" fill="rgba(194,54,22,0.6)">
    <animate attributeName="r" values="3;7;3" dur="3s" repeatCount="indefinite"/>
    <animate attributeName="opacity" values="0.7;0.2;0.7" dur="3s" repeatCount="indefinite"/>
  </circle>
  <circle cx="690" cy="115" r="4" fill="rgba(194,54,22,0.6)">
    <animate attributeName="r" values="3;7;3" dur="3.5s" repeatCount="indefinite"/>
    <animate attributeName="opacity" values="0.7;0.2;0.7" dur="3.5s" repeatCount="indefinite"/>
  </circle>
  <circle cx="790" cy="165" r="4" fill="rgba(230,126,34,0.6)">
    <animate attributeName="r" values="3;7;3" dur="4s" repeatCount="indefinite"/>
    <animate attributeName="opacity" values="0.7;0.2;0.7" dur="4s" repeatCount="indefinite"/>
  </circle>
</svg>